<?xml version="1.0" encoding="utf-8"?>
<!-- Generator: Adobe Illustrator 24.0.1, SVG Export Plug-In . SVG Version: 6.00 Build 0)  -->
<svg version="1.1" id="Layer_1" xmlns="http://www.w3.org/2000/svg" xmlns:xlink="http://www.w3.org/1999/xlink" x="0px" y="0px"
	 viewBox="0 0 190 35" style="enable-background:new 0 0 190 35;" xml:space="preserve">
<style type="text/css">
	.st0{fill:none;stroke:#2D2E7C;stroke-width:3.7259;stroke-miterlimit:10;}
	.st1{fill:#1FBAFF;}
	.st2{fill:#2D2E7C;}
</style>
<g>
	<line class="st0" x1="7.2" y1="20.8" x2="1.6" y2="26.4"/>
	<g>
		<path class="st1" d="M13.7,5.6c4.8,0,8.7,3.9,8.7,8.7S18.5,23,13.7,23S5,19.1,5,14.3S8.9,5.6,13.7,5.6 M13.7,1.8
			C6.8,1.8,1.3,7.4,1.3,14.3s5.6,12.4,12.4,12.4s12.4-5.6,12.4-12.4S20.5,1.8,13.7,1.8L13.7,1.8z"/>
	</g>
	<line class="st0" x1="13.7" y1="16.1" x2="13.7" y2="8"/>
	<g>
		<g>
			<g>
				<path class="st2" d="M44,16.7h-8.1v7.5H45v2.3H33.1V5.6h11.3v2.3h-8.6v6.5h8.1v2.3C43.9,16.7,44,16.7,44,16.7z"/>
				<path class="st2" d="M47,16.1c0-1.8,0-3.3-0.1-4.7h2.4l0.1,2.9h0.1c0.7-2,2.3-3.3,4.2-3.3c0.3,0,0.5,0,0.8,0.1v2.6
					c-0.3-0.1-0.6-0.1-0.9-0.1c-1.9,0-3.3,1.5-3.7,3.5c-0.1,0.4-0.1,0.8-0.1,1.3v8h-2.7L47,16.1L47,16.1z"/>
				<path class="st2" d="M56.2,16.1c0-1.8,0-3.3-0.1-4.7h2.4l0.1,2.9h0.1c0.7-2,2.3-3.3,4.2-3.3c0.3,0,0.5,0,0.8,0.1v2.6
					c-0.3-0.1-0.6-0.1-0.9-0.1c-1.9,0-3.3,1.5-3.7,3.5C59,17.5,59,17.9,59,18.4v8h-2.8V16.1z"/>
				<path class="st2" d="M78.8,18.8c0,5.6-3.9,8-7.5,8c-4.1,0-7.2-3-7.2-7.7c0-5,3.3-8,7.5-8C75.9,11.1,78.8,14.2,78.8,18.8z
					 M66.9,19c0,3.3,1.9,5.8,4.6,5.8c2.6,0,4.6-2.5,4.6-5.8c0-2.5-1.3-5.8-4.5-5.8S66.9,16.1,66.9,19z"/>
				<path class="st2" d="M81.3,16.1c0-1.8,0-3.3-0.1-4.7h2.4l0.1,2.9h0.1c0.7-2,2.3-3.3,4.2-3.3c0.3,0,0.5,0,0.8,0.1v2.6
					c-0.3-0.1-0.6-0.1-0.9-0.1c-1.9,0-3.3,1.5-3.7,3.5c-0.1,0.4-0.1,0.8-0.1,1.3v8h-2.7V16.1H81.3z"/>
				<path class="st2" d="M99.5,19.9l-2.2,6.6h-2.8l7.1-20.9h3.3l7.1,20.9h-2.9l-2.2-6.6H99.5z M106.3,17.8l-2-6
					c-0.5-1.4-0.8-2.6-1.1-3.9h-0.1c-0.3,1.2-0.7,2.5-1.1,3.8l-2,6.1H106.3z"/>
				<path class="st2" d="M113.9,15.5c0-1.6,0-2.8-0.1-4.1h2.4l0.2,2.5h0.1c0.7-1.4,2.5-2.8,5-2.8c2.1,0,5.3,1.2,5.3,6.4v9h-2.7v-8.7
					c0-2.4-0.9-4.4-3.5-4.4c-1.8,0-3.2,1.3-3.7,2.8c-0.1,0.3-0.2,0.8-0.2,1.3v9H114L113.9,15.5C114,15.5,113.9,15.5,113.9,15.5z"/>
				<path class="st2" d="M138.3,26.5l-0.2-1.9H138c-0.8,1.2-2.5,2.2-4.6,2.2c-3,0-4.6-2.1-4.6-4.3c0-3.6,3.2-5.6,9-5.6v-0.3
					c0-1.2-0.3-3.5-3.4-3.5c-1.4,0-2.9,0.4-3.9,1.1l-0.6-1.8c1.2-0.8,3-1.3,4.9-1.3c4.6,0,5.7,3.1,5.7,6.1v5.6
					c0,1.3,0.1,2.6,0.2,3.6L138.3,26.5L138.3,26.5z M137.9,18.8c-3-0.1-6.4,0.5-6.4,3.4c0,1.8,1.2,2.6,2.6,2.6c2,0,3.2-1.2,3.6-2.5
					c0.1-0.3,0.2-0.6,0.2-0.9L137.9,18.8L137.9,18.8z"/>
				<path class="st2" d="M143.8,4.4h2.7v22h-2.7V4.4z"/>
				<path class="st2" d="M151.2,11.5l3.3,8.9c0.3,1,0.7,2.2,1,3.1h0.1c0.3-0.9,0.6-2,1-3.1l3-8.8h2.9l-4.3,10.6
					c-2,5.2-3.3,7.8-5.2,9.4c-1.3,1.2-2.7,1.6-3.4,1.8l-0.7-2.3c0.7-0.2,1.6-0.7,2.4-1.3c0.7-0.6,1.7-1.6,2.3-3
					c0.1-0.3,0.2-0.5,0.2-0.7s-0.1-0.4-0.2-0.7l-5.4-13.9C148.2,11.5,151.2,11.5,151.2,11.5z"/>
				<path class="st2" d="M163.4,23.7c0.8,0.5,2.2,1.1,3.6,1.1c2,0,2.9-1,2.9-2.2c0-1.3-0.8-2-2.8-2.8c-2.7-1-4-2.5-4-4.3
					c0-2.4,2-4.4,5.2-4.4c1.5,0,2.9,0.4,3.7,0.9l-0.7,2c-0.6-0.4-1.7-0.9-3.1-0.9c-1.6,0-2.5,0.9-2.5,2c0,1.2,0.9,1.8,2.9,2.5
					c2.6,1,3.9,2.3,3.9,4.5c0,2.6-2,4.5-5.6,4.5c-1.6,0-3.2-0.4-4.2-1L163.4,23.7z"/>
				<path class="st2" d="M177.9,7.2c0,0.9-0.7,1.7-1.7,1.7s-1.6-0.7-1.6-1.7s0.7-1.7,1.7-1.7C177.2,5.5,177.9,6.3,177.9,7.2z
					 M174.8,26.5v-15h2.7v15H174.8z"/>
				<path class="st2" d="M180.5,23.7c0.8,0.5,2.2,1.1,3.6,1.1c2,0,2.9-1,2.9-2.2c0-1.3-0.8-2-2.8-2.8c-2.7-1-4-2.5-4-4.3
					c0-2.4,2-4.4,5.2-4.4c1.5,0,2.9,0.4,3.7,0.9l-0.7,2c-0.6-0.4-1.7-0.9-3.1-0.9c-1.6,0-2.5,0.9-2.5,2c0,1.2,0.9,1.8,2.9,2.5
					c2.6,1,3.9,2.3,3.9,4.5c0,2.6-2,4.5-5.6,4.5c-1.6,0-3.2-0.4-4.2-1L180.5,23.7z"/>
			</g>
		</g>
	</g>
	<line class="st0" x1="13.7" y1="21.1" x2="13.7" y2="18"/>
</g>
</svg>
