<?xml version="1.0" encoding="utf-8"?>
<!-- Generator: Adobe Illustrator 24.0.1, SVG Export Plug-In . SVG Version: 6.00 Build 0)  -->
<svg version="1.1" id="Layer_1" xmlns="http://www.w3.org/2000/svg" xmlns:xlink="http://www.w3.org/1999/xlink" x="0px" y="0px"
	 viewBox="0 0 80 70" style="enable-background:new 0 0 80 70;" xml:space="preserve">
<style type="text/css">
	.st0{fill:none;stroke:#3694FB;stroke-width:3;stroke-linecap:round;stroke-linejoin:round;stroke-miterlimit:10;}
	.st1{fill:#FFFFFF;stroke:#3694FB;stroke-width:3;stroke-linecap:round;stroke-linejoin:round;stroke-miterlimit:10;}
</style>
<g>
	<polygon class="st0" points="29.8,13.3 47.6,40.1 14.5,40.1 	"/>
	<circle class="st1" cx="47.7" cy="39.4" r="14.6"/>
	<path class="st0" d="M41.6,46.5c-3.8-3.8-3.8-9.8,0-13.6"/>
	<line class="st0" x1="47.7" y1="30.9" x2="47.7" y2="42.6"/>
	<line class="st0" x1="47.6" y1="47.7" x2="47.6" y2="47.7"/>
	<g>
		<circle class="st1" cx="29.2" cy="13.6" r="10"/>
		<g>
			<line class="st0" x1="29.2" y1="9" x2="29.2" y2="13.8"/>
			<line class="st0" x1="29.2" y1="18.2" x2="29.2" y2="18.2"/>
		</g>
	</g>
	<g>
		<circle class="st1" cx="13.9" cy="40.4" r="10"/>
		<g>
			<line class="st0" x1="14" y1="35.8" x2="14" y2="40.5"/>
			<line class="st0" x1="13.9" y1="44.9" x2="13.9" y2="44.9"/>
		</g>
	</g>
	<path class="st0" d="M75.2,65.6l-0.8,0.8c-0.8,0.8-2,0.8-2.8,0l-9.8-9.8c-0.8-0.8-0.8-2,0-2.8l0.8-0.8c0.8-0.8,2-0.8,2.8,0l9.8,9.8
		C75.9,63.6,75.9,64.8,75.2,65.6z"/>
	<line class="st0" x1="58.6" y1="49.8" x2="62.2" y2="53.4"/>
</g>
<g>
</g>
<g>
</g>
<g>
</g>
<g>
</g>
<g>
</g>
<g>
</g>
<g>
</g>
<g>
</g>
<g>
</g>
<g>
</g>
<g>
</g>
<g>
</g>
<g>
</g>
<g>
</g>
<g>
</g>
</svg>
