<?xml version="1.0" encoding="utf-8"?>
<!-- Generator: Adobe Illustrator 24.0.1, SVG Export Plug-In . SVG Version: 6.00 Build 0)  -->
<svg version="1.1" id="Layer_1" xmlns="http://www.w3.org/2000/svg" xmlns:xlink="http://www.w3.org/1999/xlink" x="0px" y="0px"
	 viewBox="0 0 232 40" style="enable-background:new 0 0 232 40;" xml:space="preserve">
<style type="text/css">
	.st0{fill:none;stroke:#2D2E7C;stroke-width:3.7259;stroke-miterlimit:10;}
	.st1{fill:#1FBAFF;}
	.st2{fill:#2D2E7C;}
</style>
<g>
	<line class="st0" x1="6.8" y1="21.2" x2="1.2" y2="26.8"/>
	<g>
		<path class="st1" d="M13.3,6c4.8,0,8.7,3.9,8.7,8.7s-3.9,8.7-8.7,8.7s-8.7-3.9-8.7-8.7S8.5,6,13.3,6 M13.3,2.2
			C6.5,2.2,0.9,7.8,0.9,14.6s5.6,12.4,12.4,12.4s12.4-5.6,12.4-12.4S20.2,2.2,13.3,2.2L13.3,2.2z"/>
	</g>
	<line class="st0" x1="13.3" y1="16.5" x2="13.3" y2="8.4"/>
	<g>
		<g>
			<g>
				<path class="st2" d="M47.9,26.9h-13V5.1h12.5v4h-7.6V14h7.1v4h-7.1v5h8.1V26.9z"/>
				<path class="st2" d="M61.1,15.7c-0.6-0.3-1.2-0.5-2-0.5c-1,0-1.9,0.4-2.4,1.1c-0.6,0.8-0.9,1.8-0.9,3.1v7.4H51V11.3h4.8v2.9h0.1
					c0.8-2.1,2.1-3.2,4.1-3.2c0.5,0,0.9,0.1,1.2,0.2V15.7z"/>
				<path class="st2" d="M73.3,15.7c-0.6-0.3-1.2-0.5-2-0.5c-1,0-1.9,0.4-2.4,1.1c-0.6,0.8-0.9,1.8-0.9,3.1v7.4h-4.8V11.3H68v2.9H68
					c0.8-2.1,2.1-3.2,4.1-3.2c0.5,0,0.9,0.1,1.2,0.2V15.7z"/>
				<path class="st2" d="M83,27.3c-2.6,0-4.6-0.7-6.1-2.2s-2.2-3.4-2.2-5.9c0-2.6,0.8-4.6,2.3-6c1.5-1.5,3.6-2.2,6.2-2.2
					c2.6,0,4.6,0.7,6.1,2.2c1.5,1.5,2.2,3.4,2.2,5.8c0,2.6-0.8,4.6-2.3,6.1C87.7,26.5,85.6,27.3,83,27.3z M83.1,14.6
					c-1.1,0-2,0.4-2.6,1.2s-0.9,1.9-0.9,3.3c0,3,1.2,4.5,3.6,4.5c2.3,0,3.4-1.5,3.4-4.6C86.6,16.1,85.4,14.6,83.1,14.6z"/>
				<path class="st2" d="M104.5,15.7c-0.6-0.3-1.2-0.5-2-0.5c-1,0-1.9,0.4-2.4,1.1c-0.6,0.8-0.9,1.8-0.9,3.1v7.4h-4.8V11.3h4.8v2.9
					h0.1c0.8-2.1,2.1-3.2,4.1-3.2c0.5,0,0.9,0.1,1.2,0.2V15.7z"/>
				<path class="st2" d="M134.9,26.9h-5.3L128,22h-7.7l-1.5,4.8h-5.3l7.9-21.7h5.8L134.9,26.9z M126.9,18.3l-2.3-7.3
					c-0.2-0.5-0.3-1.2-0.4-2H124c-0.1,0.6-0.2,1.3-0.4,1.9l-2.4,7.4H126.9z"/>
				<path class="st2" d="M151.9,26.9h-4.8v-8.6c0-2.4-0.9-3.6-2.6-3.6c-0.8,0-1.5,0.3-2,1c-0.5,0.6-0.8,1.4-0.8,2.4v8.9h-4.8V11.3
					h4.8v2.5h0.1c1.1-1.9,2.8-2.8,5-2.8c3.4,0,5.2,2.1,5.2,6.4V26.9z"/>
				<path class="st2" d="M168.5,26.9H164v-2.2h-0.1c-1,1.7-2.6,2.6-4.6,2.6c-1.5,0-2.7-0.4-3.6-1.3c-0.9-0.9-1.3-2-1.3-3.4
					c0-3,1.8-4.8,5.4-5.2l4.2-0.6c0-1.7-0.9-2.5-2.8-2.5c-1.8,0-3.6,0.6-5.3,1.7v-3.6c0.7-0.3,1.6-0.6,2.7-0.9s2.2-0.4,3.2-0.4
					c4.4,0,6.6,2.2,6.6,6.6V26.9z M164,20.6v-1l-2.8,0.4c-1.6,0.2-2.3,0.9-2.3,2.1c0,0.5,0.2,1,0.6,1.3c0.4,0.3,0.9,0.5,1.5,0.5
					c0.9,0,1.6-0.3,2.2-0.9C163.8,22.3,164,21.5,164,20.6z"/>
				<path class="st2" d="M176.9,26.9h-4.8v-23h4.8V26.9z"/>
				<path class="st2" d="M195.7,11.3l-6.3,16.8c-1.5,4-3.8,6-6.9,6c-1.2,0-2.1-0.1-2.9-0.4V30c0.6,0.4,1.3,0.6,2.1,0.6
					c1.2,0,2.1-0.6,2.6-1.7l0.8-1.9l-6.3-15.5h5.3l2.9,9.4c0.2,0.6,0.3,1.3,0.4,2.1h0.1c0.1-0.6,0.3-1.3,0.5-2l2.9-9.5H195.7z"/>
				<path class="st2" d="M196.5,26.5v-3.9c0.8,0.5,1.6,0.8,2.4,1.1s1.5,0.3,2.2,0.3c0.8,0,1.5-0.1,2-0.3s0.7-0.6,0.7-1.1
					c0-0.3-0.1-0.6-0.3-0.8c-0.2-0.2-0.5-0.4-0.9-0.5c-0.3-0.2-0.7-0.3-1.1-0.4c-0.4-0.1-0.8-0.3-1.2-0.4c-0.6-0.2-1.2-0.5-1.6-0.8
					c-0.5-0.3-0.9-0.6-1.2-0.9s-0.6-0.8-0.7-1.2s-0.3-1-0.3-1.7c0-0.9,0.2-1.6,0.6-2.2c0.4-0.6,0.9-1.1,1.5-1.5
					c0.6-0.4,1.4-0.7,2.2-0.9s1.7-0.3,2.5-0.3c0.7,0,1.4,0.1,2.1,0.2c0.7,0.1,1.4,0.3,2.1,0.5v3.7c-0.6-0.4-1.3-0.6-1.9-0.8
					c-0.7-0.2-1.4-0.3-2-0.3c-0.3,0-0.6,0-0.9,0.1c-0.3,0.1-0.5,0.1-0.7,0.2c-0.2,0.1-0.4,0.2-0.5,0.4c-0.1,0.2-0.2,0.4-0.2,0.6
					c0,0.3,0.1,0.5,0.3,0.7c0.2,0.2,0.4,0.4,0.7,0.5s0.6,0.3,1,0.4c0.4,0.1,0.7,0.2,1.1,0.4c0.6,0.2,1.2,0.5,1.7,0.7
					c0.5,0.3,1,0.6,1.3,0.9c0.4,0.4,0.7,0.8,0.8,1.2c0.2,0.5,0.3,1,0.3,1.7c0,0.9-0.2,1.7-0.6,2.4c-0.4,0.7-0.9,1.2-1.6,1.6
					s-1.4,0.7-2.3,0.9c-0.9,0.2-1.8,0.3-2.7,0.3C199.5,27.3,198,27,196.5,26.5z"/>
				<path class="st2" d="M213.5,8.9c-0.8,0-1.5-0.2-2-0.7s-0.8-1.1-0.8-1.8c0-0.7,0.3-1.3,0.8-1.8c0.5-0.5,1.2-0.7,2-0.7
					c0.8,0,1.5,0.2,2,0.7c0.5,0.5,0.8,1,0.8,1.8c0,0.7-0.3,1.3-0.8,1.8C215,8.7,214.3,8.9,213.5,8.9z M215.9,26.9h-4.8V11.3h4.8
					V26.9z"/>
				<path class="st2" d="M218.9,26.5v-3.9c0.8,0.5,1.6,0.8,2.4,1.1s1.5,0.3,2.2,0.3c0.8,0,1.5-0.1,2-0.3s0.7-0.6,0.7-1.1
					c0-0.3-0.1-0.6-0.3-0.8c-0.2-0.2-0.5-0.4-0.9-0.5c-0.3-0.2-0.7-0.3-1.1-0.4c-0.4-0.1-0.8-0.3-1.2-0.4c-0.6-0.2-1.2-0.5-1.6-0.8
					c-0.5-0.3-0.9-0.6-1.2-0.9s-0.6-0.8-0.7-1.2s-0.3-1-0.3-1.7c0-0.9,0.2-1.6,0.6-2.2c0.4-0.6,0.9-1.1,1.5-1.5
					c0.6-0.4,1.4-0.7,2.2-0.9s1.7-0.3,2.5-0.3c0.7,0,1.4,0.1,2.1,0.2c0.7,0.1,1.4,0.3,2.1,0.5v3.7c-0.6-0.4-1.3-0.6-1.9-0.8
					c-0.7-0.2-1.4-0.3-2-0.3c-0.3,0-0.6,0-0.9,0.1c-0.3,0.1-0.5,0.1-0.7,0.2c-0.2,0.1-0.4,0.2-0.5,0.4c-0.1,0.2-0.2,0.4-0.2,0.6
					c0,0.3,0.1,0.5,0.3,0.7c0.2,0.2,0.4,0.4,0.7,0.5s0.6,0.3,1,0.4c0.4,0.1,0.7,0.2,1.1,0.4c0.6,0.2,1.2,0.5,1.7,0.7
					c0.5,0.3,1,0.6,1.3,0.9c0.4,0.4,0.7,0.8,0.8,1.2c0.2,0.5,0.3,1,0.3,1.7c0,0.9-0.2,1.7-0.6,2.4c-0.4,0.7-0.9,1.2-1.6,1.6
					s-1.4,0.7-2.3,0.9c-0.9,0.2-1.8,0.3-2.7,0.3C222,27.3,220.4,27,218.9,26.5z"/>
			</g>
		</g>
	</g>
	<line class="st0" x1="13.3" y1="21.5" x2="13.3" y2="18.4"/>
</g>
<g>
</g>
<g>
</g>
<g>
</g>
<g>
</g>
<g>
</g>
<g>
</g>
<g>
</g>
<g>
</g>
<g>
</g>
<g>
</g>
<g>
</g>
<g>
</g>
<g>
</g>
<g>
</g>
<g>
</g>
</svg>
