<?xml version="1.0" encoding="utf-8"?>
<!-- Generator: Adobe Illustrator 24.0.1, SVG Export Plug-In . SVG Version: 6.00 Build 0)  -->
<svg version="1.1" id="Layer_1" xmlns="http://www.w3.org/2000/svg" xmlns:xlink="http://www.w3.org/1999/xlink" x="0px" y="0px"
	 viewBox="0 0 70 70" style="enable-background:new 0 0 70 70;" xml:space="preserve">
<style type="text/css">
	.st0{fill:none;stroke:#3694FB;stroke-width:3;stroke-linecap:round;stroke-linejoin:round;stroke-miterlimit:10;}
</style>
<g>
	<g>
		<path class="st0" d="M29,52.8l-9.9-9.9c-1.3-1.3-3.5-1.4-4.9-0.1c-1.4,1.3-1.4,3.6,0,4.9l15.1,17.3c1.4,1.6,3.5,2.6,5.7,2.6
			l10.8,0c6,0,10.9-4.9,10.9-10.9V39.8c0-1.9-1.5-3.5-3.4-3.6c-1.9,0-3.5,1.5-3.5,3.5v-2.8c0-1.9-1.5-3.5-3.4-3.6
			c-1.9,0-3.5,1.5-3.5,3.5v-1.6c0-1.9-1.5-3.5-3.4-3.6c-1.9,0-3.5,1.5-3.5,3.5v-16c0-1.9-1.5-3.5-3.4-3.6c-1.9,0-3.5,1.5-3.5,3.5
			L29,52.8z"/>
	</g>
	<g>
		<g>
			<path class="st0" d="M45.9,25.8c3.6-7,1.3-15.7-5.5-19.9c-7.2-4.4-16.5-2.2-20.9,5c-3.8,6.2-2.7,14,2.3,18.9"/>
			<path class="st0" d="M24.9,24c-2.1-2.9-2.3-6.9-0.3-10.2c2.7-4.3,8.4-5.7,12.7-3s5.7,8.4,3,12.7"/>
		</g>
	</g>
</g>
<g>
</g>
<g>
</g>
<g>
</g>
<g>
</g>
<g>
</g>
<g>
</g>
<g>
</g>
<g>
</g>
<g>
</g>
<g>
</g>
<g>
</g>
<g>
</g>
<g>
</g>
<g>
</g>
<g>
</g>
</svg>
